<?xml version="1.0" standalone="no"?>
<!DOCTYPE svg PUBLIC "-//W3C//DTD SVG 20010904//EN"
 "http://www.w3.org/TR/2001/REC-SVG-20010904/DTD/svg10.dtd">
<svg version="1.0" xmlns="http://www.w3.org/2000/svg"
 width="504.000000pt" height="29.000000pt" viewBox="0 0 504.000000 29.000000"
 preserveAspectRatio="xMidYMid meet">
<metadata>
Created by potrace 1.15, written by Peter Selinger 2001-2017
</metadata>
<g transform="translate(0.000000,29.000000) scale(0.100000,-0.100000)"
fill="#000000" stroke="none">
<path d="M2460 225 c0 -19 -4 -35 -10 -35 -5 0 -10 14 -10 30 0 20 -5 30 -15
30 -11 0 -15 -12 -16 -42 0 -35 -5 -47 -30 -66 -23 -19 -29 -20 -29 -8 0 22
-9 20 -44 -11 -29 -26 -29 -26 -8 -2 24 28 28 44 11 54 -18 12 -49 -26 -49
-61 0 -43 16 -51 46 -23 17 16 23 18 19 7 -10 -26 17 -34 33 -10 15 23 46 29
57 12 13 -21 25 -9 25 25 0 19 5 35 10 35 6 0 10 -18 10 -40 0 -22 1 -40 3
-40 1 0 17 4 35 9 17 5 32 6 32 2 0 -5 17 -11 37 -14 27 -5 42 -2 55 10 10 9
18 11 18 6 0 -17 69 -7 91 13 10 9 19 24 19 32 0 12 -6 10 -25 -8 -14 -13 -28
-20 -32 -15 -5 4 -2 10 5 12 17 6 42 32 42 44 0 5 -9 9 -20 9 -19 0 -19 1 -5
24 17 25 11 56 -11 56 -14 0 -54 -69 -54 -94 0 -8 -11 -28 -25 -43 -20 -23
-24 -25 -25 -10 0 10 7 20 15 23 19 8 20 44 1 44 -8 0 -22 -10 -30 -22 -9 -12
-16 -17 -16 -11 0 19 -53 26 -66 9 -18 -25 -24 -7 -18 51 6 45 4 53 -10 53
-12 0 -16 -9 -16 -35z"/>
</g>
</svg>
